<!-- Chow Planner Laptop/Desktop Wireframe -->
<svg width="600" height="800" viewBox="0 0 600 800" xmlns="http://www.w3.org/2000/svg" font-family="Source Sans Pro, Arial, sans-serif">
  <rect x="50" y="50" width="500" height="700" fill="#F5F5DC" stroke="#2D2D2D" stroke-width="2"/>
  <!-- Header with word placeholders -->
  <rect x="70" y="100" width="460" height="60" rx="16" fill="#38421f" stroke="#2D2D2D" stroke-width="2"/>
  <text x="140" y="140" font-size="18" text-anchor="middle" fill="#C2B280" font-family="Oswald, Arial Black, Impact, sans-serif" font-weight="bold">LOGO</text>
  <text x="300" y="140" font-size="26" text-anchor="middle" fill="#F5F5DC" font-family="Oswald, Arial Black, Impact, sans-serif" font-weight="bold">CHOW PLANNER</text>
  <!-- Horizontal menu row with all items evenly spaced -->
  <rect x="70" y="174" width="92" height="36" rx="8" fill="#4B5320" stroke="#2D2D2D" stroke-width="1"/>
  <text x="116" y="196" font-size="15" text-anchor="middle" fill="#F5F5DC" font-family="Oswald, Arial Black, Impact, sans-serif" font-weight="bold">Home</text>
  <rect x="162" y="174" width="92" height="36" rx="8" fill="#4B5320" stroke="#2D2D2D" stroke-width="1"/>
  <text x="208" y="196" font-size="15" text-anchor="middle" fill="#F5F5DC" font-family="Oswald, Arial Black, Impact, sans-serif" font-weight="bold">Recipes</text>
  <rect x="254" y="174" width="92" height="36" rx="8" fill="#4B5320" stroke="#2D2D2D" stroke-width="1"/>
  <text x="300" y="196" font-size="15" text-anchor="middle" fill="#F5F5DC" font-family="Oswald, Arial Black, Impact, sans-serif" font-weight="bold">Meal Plan</text>
  <rect x="346" y="174" width="92" height="36" rx="8" fill="#4B5320" stroke="#2D2D2D" stroke-width="1"/>
  <text x="392" y="196" font-size="15" text-anchor="middle" fill="#F5F5DC" font-family="Oswald, Arial Black, Impact, sans-serif" font-weight="bold">Shopping</text>
  <rect x="438" y="174" width="92" height="36" rx="8" fill="#4B5320" stroke="#2D2D2D" stroke-width="1"/>
  <text x="484" y="196" font-size="15" text-anchor="middle" fill="#F5F5DC" font-family="Oswald, Arial Black, Impact, sans-serif" font-weight="bold">Chow Tools</text>
  <!-- Search bar -->
  <rect x="120" y="224" width="360" height="32" rx="8" fill="#FFF" stroke="#38421f" stroke-width="1"/>
  <text x="300" y="244" font-size="14" text-anchor="middle" fill="#38421f" font-family="Oswald, Arial Black, Impact, sans-serif">SEARCH BAR</text>
  <!-- Meal Plan and Shopping List buttons -->
  <rect x="120" y="274" width="170" height="32" rx="8" fill="#C2B280" stroke="#38421f" stroke-width="1"/>
  <text x="205" y="294" font-size="13" text-anchor="middle" fill="#38421f" font-family="Oswald, Arial Black, Impact, sans-serif">MEAL PLAN</text>
  <rect x="310" y="274" width="170" height="32" rx="8" fill="#C2B280" stroke="#38421f" stroke-width="1"/>
  <text x="395" y="294" font-size="13" text-anchor="middle" fill="#38421f" font-family="Oswald, Arial Black, Impact, sans-serif">SHOPPING LIST</text>
  <!-- Recipe Cards 3x3 Grid -->
  <rect x="120" y="324" width="113" height="110" rx="10" fill="#FFF" stroke="#38421f" stroke-width="1"/>
  <rect x="243" y="324" width="114" height="110" rx="10" fill="#FFF" stroke="#38421f" stroke-width="1"/>
  <rect x="367" y="324" width="113" height="110" rx="10" fill="#FFF" stroke="#38421f" stroke-width="1"/>
  <rect x="120" y="444" width="113" height="110" rx="10" fill="#FFF" stroke="#38421f" stroke-width="1"/>
  <rect x="243" y="444" width="114" height="110" rx="10" fill="#FFF" stroke="#38421f" stroke-width="1"/>
  <rect x="367" y="444" width="113" height="110" rx="10" fill="#FFF" stroke="#38421f" stroke-width="1"/>
  <rect x="120" y="564" width="113" height="110" rx="10" fill="#FFF" stroke="#38421f" stroke-width="1"/>
  <rect x="243" y="564" width="114" height="110" rx="10" fill="#FFF" stroke="#38421f" stroke-width="1"/>
  <rect x="367" y="564" width="113" height="110" rx="10" fill="#FFF" stroke="#38421f" stroke-width="1"/>
  <text x="176.5" y="384" font-size="13" text-anchor="middle" fill="#38421f" font-family="Oswald, Arial Black, Impact, sans-serif">RECIPE CARD</text>
  <text x="300" y="384" font-size="13" text-anchor="middle" fill="#38421f" font-family="Oswald, Arial Black, Impact, sans-serif">RECIPE CARD</text>
  <text x="423.5" y="384" font-size="13" text-anchor="middle" fill="#38421f" font-family="Oswald, Arial Black, Impact, sans-serif">RECIPE CARD</text>
  <text x="176.5" y="504" font-size="13" text-anchor="middle" fill="#38421f" font-family="Oswald, Arial Black, Impact, sans-serif">RECIPE CARD</text>
  <text x="300" y="504" font-size="13" text-anchor="middle" fill="#38421f" font-family="Oswald, Arial Black, Impact, sans-serif">RECIPE CARD</text>
  <text x="423.5" y="504" font-size="13" text-anchor="middle" fill="#38421f" font-family="Oswald, Arial Black, Impact, sans-serif">RECIPE CARD</text>
  <text x="176.5" y="624" font-size="13" text-anchor="middle" fill="#38421f" font-family="Oswald, Arial Black, Impact, sans-serif">RECIPE CARD</text>
  <text x="300" y="624" font-size="13" text-anchor="middle" fill="#38421f" font-family="Oswald, Arial Black, Impact, sans-serif">RECIPE CARD</text>
  <text x="423.5" y="624" font-size="13" text-anchor="middle" fill="#38421f" font-family="Oswald, Arial Black, Impact, sans-serif">RECIPE CARD</text>
  <!-- Footer -->
  <rect x="120" y="694" width="360" height="32" rx="8" fill="#38421f" stroke="#2D2D2D" stroke-width="1"/>
  <text x="300" y="716" font-size="13" text-anchor="middle" fill="#F5F5DC" font-family="Oswald, Arial Black, Impact, sans-serif">FOOTER NAV</text>
</svg>
